<?xml version="1.0" standalone="no"?>
<!DOCTYPE svg PUBLIC "-//W3C//DTD SVG 20010904//EN"
 "http://www.w3.org/TR/2001/REC-SVG-20010904/DTD/svg10.dtd">
<svg version="1.0" xmlns="http://www.w3.org/2000/svg"
 width="2992.000000pt" height="3604.000000pt" viewBox="0 0 2992.000000 3604.000000"
 preserveAspectRatio="xMidYMid meet">

<g transform="translate(0.000000,3604.000000) scale(0.100000,-0.100000)"
fill="#000000" stroke="none">
<path d="M16130 34774 c-664 -26 -1237 -76 -1653 -145 -561 -92 -741 -129
-1152 -234 -501 -129 -845 -248 -1345 -467 -473 -207 -1006 -531 -1390 -845
-272 -222 -478 -403 -538 -473 -35 -41 -124 -142 -197 -225 -153 -172 -205
-238 -336 -425 -243 -346 -511 -824 -598 -1068 -21 -59 -66 -179 -100 -267
-149 -387 -257 -816 -321 -1272 -55 -402 -60 -470 -60 -984 0 -366 -3 -479
-13 -492 -7 -10 -100 -62 -207 -115 -354 -178 -499 -262 -810 -468 -205 -136
-636 -510 -887 -768 -93 -95 -178 -178 -190 -185 -28 -14 -72 6 -165 77 -575
439 -660 508 -678 552 -12 28 -8 60 38 298 55 285 61 317 91 542 34 247 51
413 61 593 12 210 12 633 1 860 -9 161 -10 171 -41 233 -64 130 -189 164 -306
83 -34 -23 -53 -50 -99 -141 -75 -150 -433 -696 -462 -706 -18 -5 -72 56 -160
183 -42 61 -115 164 -163 230 -48 66 -144 203 -215 305 -71 102 -156 223 -190
270 -34 47 -77 108 -95 135 -82 122 -151 184 -232 206 -60 16 -207 -13 -283
-56 -67 -37 -154 -122 -180 -174 -25 -49 -21 -123 45 -896 24 -273 26 -359 8
-352 -7 2 -40 12 -73 22 -61 17 -310 120 -600 247 -88 39 -209 90 -270 114
-60 23 -166 66 -235 95 -149 61 -228 72 -323 44 -80 -23 -170 -93 -234 -184
-69 -96 -86 -155 -81 -281 3 -88 7 -105 42 -176 34 -70 56 -97 190 -229 83
-82 250 -241 371 -351 121 -111 253 -235 293 -276 l73 -75 -52 -1 c-309 -7
-853 -106 -974 -177 -53 -31 -132 -111 -156 -157 -30 -59 -44 -178 -30 -258
14 -78 58 -176 92 -206 78 -69 335 -193 524 -254 191 -62 429 -113 578 -125
64 -5 169 -33 186 -50 6 -7 -44 -62 -253 -279 -110 -115 -213 -227 -228 -250
-42 -62 -62 -132 -62 -216 -1 -63 3 -84 27 -131 38 -74 95 -132 165 -166 54
-27 63 -28 182 -26 118 2 219 17 470 70 160 33 639 177 946 283 66 23 154 49
197 59 l77 19 5 -22 c2 -11 16 -86 30 -166 49 -282 76 -416 101 -500 88 -291
285 -861 360 -1037 26 -60 63 -151 84 -203 21 -52 61 -147 90 -210 28 -63 79
-178 112 -255 33 -77 104 -233 159 -346 98 -201 100 -208 119 -330 23 -148 68
-350 110 -493 56 -193 198 -582 250 -687 192 -384 329 -600 540 -854 78 -93
144 -175 146 -181 7 -17 -43 -114 -128 -246 -74 -117 -146 -267 -253 -528 -81
-199 -100 -259 -126 -394 -24 -125 -22 -262 5 -313 18 -37 70 -84 161 -148 39
-27 97 -70 130 -96 55 -42 174 -123 730 -496 233 -157 808 -522 910 -578 39
-21 106 -62 150 -90 228 -146 649 -382 1048 -588 121 -61 235 -126 255 -143
l37 -31 -13 -60 c-6 -32 -27 -98 -46 -145 -19 -47 -51 -139 -70 -204 -19 -65
-42 -139 -51 -164 -9 -25 -20 -65 -26 -90 -5 -25 -38 -144 -74 -265 -157 -540
-224 -791 -295 -1100 -74 -328 -117 -506 -130 -540 -6 -15 -17 -68 -24 -119
-8 -50 -37 -224 -65 -386 -27 -162 -55 -338 -61 -390 -61 -545 -73 -731 -67
-983 9 -393 60 -624 194 -890 48 -97 50 -137 14 -298 -17 -75 -40 -192 -52
-260 -11 -68 -40 -216 -64 -329 -43 -203 -66 -335 -144 -830 -44 -283 -68
-465 -76 -585 -3 -44 -13 -138 -23 -210 -13 -102 -16 -215 -16 -530 0 -370 2
-410 23 -535 13 -74 36 -169 52 -210 34 -90 107 -215 144 -250 l27 -25 361 0
c199 0 645 2 990 5 694 6 636 11 657 -60 6 -19 22 -100 36 -180 57 -329 176
-832 294 -1240 48 -168 155 -503 280 -880 140 -423 223 -738 200 -764 -6 -8
-42 -24 -80 -35 -146 -45 -196 -78 -303 -200 -109 -125 -176 -307 -207 -566
-35 -295 -86 -408 -229 -504 -68 -46 -106 -66 -336 -174 -99 -47 -275 -130
-391 -185 -116 -55 -260 -121 -320 -145 -60 -25 -165 -70 -234 -100 -69 -30
-190 -78 -270 -107 -185 -67 -206 -78 -279 -146 -104 -96 -160 -242 -147 -384
11 -122 113 -281 221 -345 86 -50 206 -69 430 -69 178 0 216 3 345 28 290 56
579 139 945 271 332 120 422 149 595 194 357 92 702 137 1310 171 102 6 250
15 330 22 80 6 335 14 566 17 l422 6 71 49 c78 53 115 94 154 171 85 169 76
330 -28 534 -73 143 -122 218 -209 319 -124 146 -148 176 -170 217 -21 40 -21
42 -20 755 1 688 2 727 28 1015 52 593 82 840 131 1110 13 72 33 184 45 250
61 351 209 937 246 975 16 16 283 22 1874 37 l775 8 36 28 c20 15 49 45 64 67
15 22 32 40 37 40 4 0 31 -12 59 -26 l51 -27 1111 -7 c776 -4 1120 -10 1138
-17 51 -22 100 -91 208 -293 242 -452 363 -752 469 -1165 l46 -180 7 -385 c7
-413 20 -537 83 -819 14 -62 33 -156 41 -209 34 -212 147 -563 255 -791 50
-105 51 -109 37 -138 -9 -16 -57 -70 -107 -119 -192 -186 -403 -455 -489 -624
-42 -80 -53 -115 -62 -182 -36 -263 49 -465 246 -583 114 -68 246 -91 434 -75
64 6 213 17 331 25 118 9 271 20 339 25 68 6 335 10 593 10 428 0 491 -2 731
-26 327 -32 460 -58 707 -139 240 -80 331 -99 591 -126 242 -25 572 -22 749 6
122 19 319 82 381 121 131 83 219 241 219 396 0 139 -63 293 -156 377 -100 91
-170 121 -684 285 -354 114 -407 129 -705 206 -521 134 -491 124 -520 180 -7
14 -25 109 -39 212 -32 224 -62 337 -119 437 -74 131 -181 225 -329 291 l-48
21 0 252 c0 139 7 347 15 462 8 116 17 296 20 400 4 105 13 258 20 340 8 83
17 204 20 270 10 214 45 695 66 910 22 229 74 614 84 624 4 3 442 8 975 11
l968 5 27 25 c30 28 59 86 68 140 19 107 46 452 57 735 25 659 6 1219 -60
1740 -10 83 -22 183 -26 224 l-6 74 23 -7 c82 -23 156 -30 329 -30 221 -1 286
8 430 61 308 114 512 279 688 559 72 115 180 406 207 560 17 99 19 258 4 324
-5 25 -48 124 -94 220 -95 199 -105 229 -105 321 0 90 20 153 100 304 173 332
303 778 359 1233 48 383 55 520 56 982 0 447 -2 483 -47 977 -25 277 -27 268
79 301 78 24 321 64 533 87 80 8 181 20 225 25 250 31 394 234 327 460 -32
105 -128 363 -186 499 -29 69 -68 164 -85 211 -149 410 -215 585 -288 770 -47
118 -106 276 -133 350 -44 121 -158 422 -253 665 -19 50 -60 160 -90 245 -30
85 -90 238 -133 340 -134 321 -164 428 -183 660 -15 170 -30 368 -40 521 -14
207 -63 326 -185 450 -64 64 -141 107 -241 133 -68 18 -551 51 -970 66 -183 7
-348 7 -510 0 -242 -11 -552 -40 -641 -61 -27 -6 -116 -15 -199 -21 -82 -5
-181 -11 -220 -14 -64 -4 -68 -3 -51 11 11 8 43 21 72 30 42 12 215 88 258
113 5 3 6 0 2 -6 -4 -7 -6 -12 -4 -12 8 0 337 149 408 185 41 20 126 57 189
82 63 24 177 73 254 109 225 104 180 108 489 -44 144 -72 306 -147 358 -167
52 -21 162 -69 243 -107 184 -85 253 -112 342 -134 39 -9 103 -29 143 -45 47
-19 91 -29 125 -29 28 0 93 -11 142 -25 212 -59 535 -87 854 -74 160 6 205 12
316 39 162 40 404 127 504 182 125 68 303 193 371 260 87 86 214 239 267 321
111 170 228 458 273 672 31 146 38 417 16 595 -44 347 -171 941 -273 1275
-151 496 -329 906 -541 1244 -189 303 -324 465 -536 644 -208 177 -291 230
-516 329 -109 48 -137 57 -232 78 -32 7 -64 20 -72 29 -18 20 -50 119 -75 236
-11 50 -36 142 -55 205 -19 63 -49 169 -66 234 -63 237 -247 746 -412 1140
-100 239 -411 835 -585 1121 -101 167 -296 463 -392 595 -50 69 -132 183 -182
254 -83 117 -267 338 -423 507 -319 343 -441 468 -626 638 -404 372 -556 498
-784 655 -54 37 -133 95 -175 128 -181 144 -696 468 -1031 648 -194 105 -615
312 -826 408 -494 223 -1265 487 -1814 621 -629 154 -753 173 -1365 211 -161
11 -1383 21 -1565 14z m-1775 -1214 c1241 -52 2371 -152 3285 -291 260 -40
676 -119 759 -144 47 -14 93 -25 104 -25 28 0 213 -46 279 -70 32 -11 77 -20
100 -20 40 -1 41 -2 24 -15 -10 -8 -55 -26 -100 -41 -141 -45 -465 -194 -636
-292 -279 -159 -429 -271 -616 -457 -150 -150 -224 -260 -301 -450 l-45 -110
-1 -181 -2 -181 43 -85 c111 -219 314 -414 519 -497 125 -51 184 -61 374 -61
169 0 180 1 302 35 218 59 333 116 623 303 87 57 262 165 387 240 126 75 266
159 310 186 142 85 563 296 590 296 36 0 117 -50 205 -127 41 -36 116 -95 166
-132 117 -87 390 -312 580 -478 39 -35 116 -98 171 -141 102 -80 312 -271 609
-554 197 -187 187 -183 396 -175 117 4 162 10 235 31 258 77 449 211 612 434
73 98 143 204 168 253 5 10 12 19 15 19 11 -1 214 -316 313 -485 162 -279 193
-336 222 -405 15 -36 63 -143 106 -237 89 -193 136 -309 163 -398 10 -33 38
-114 61 -180 169 -473 263 -893 329 -1470 38 -329 48 -875 21 -1179 -46 -511
-132 -1014 -201 -1179 -14 -33 -23 -61 -20 -64 8 -8 43 15 67 44 13 16 74 70
134 122 61 52 180 162 265 245 148 144 266 256 725 691 110 104 277 265 371
357 l171 168 83 0 c151 0 325 -47 500 -135 161 -81 437 -317 579 -495 84 -104
233 -329 298 -447 72 -133 219 -451 278 -603 92 -236 201 -599 259 -860 102
-460 128 -613 157 -895 27 -274 -27 -557 -159 -820 -87 -174 -272 -393 -441
-521 -149 -113 -388 -218 -602 -265 -254 -55 -655 -51 -944 10 -508 107 -903
259 -1501 576 -139 74 -260 135 -269 135 -9 0 -38 -11 -66 -25 -27 -14 -82
-37 -122 -52 -40 -14 -112 -45 -160 -70 -48 -24 -111 -53 -140 -64 -29 -11
-162 -67 -297 -124 -135 -57 -371 -156 -525 -220 -154 -64 -332 -138 -395
-165 -63 -27 -150 -62 -192 -79 -42 -17 -153 -63 -245 -102 -92 -39 -220 -91
-283 -114 -63 -24 -182 -71 -265 -105 -82 -34 -204 -82 -270 -107 -66 -24
-217 -83 -335 -130 -118 -47 -291 -114 -385 -148 -93 -35 -285 -106 -425 -159
-140 -53 -302 -114 -360 -135 -58 -21 -150 -56 -205 -76 -55 -20 -212 -77
-350 -126 -137 -49 -299 -108 -360 -130 -391 -146 -1970 -666 -2410 -794 -88
-26 -252 -74 -365 -107 -409 -120 -525 -151 -1085 -292 -552 -140 -1222 -287
-1545 -340 -963 -159 -1461 -199 -2245 -178 -242 6 -467 16 -500 21 -33 5
-118 15 -190 21 -71 6 -188 20 -260 30 -71 11 -221 31 -333 45 -214 27 -257
35 -467 85 -71 17 -163 37 -202 45 -219 42 -735 202 -1034 320 -523 207 -1021
486 -1384 775 -372 296 -546 469 -797 790 -156 201 -278 392 -381 600 -218
437 -356 880 -416 1331 -19 144 -33 494 -27 674 9 236 49 554 92 720 8 33 22
94 30 135 19 101 84 304 151 475 164 415 446 890 749 1261 148 182 536 579
684 700 318 261 496 386 776 547 339 195 517 282 724 354 l95 33 0 42 c-1 24
-8 131 -17 238 -27 314 -29 392 -19 635 35 786 197 1550 457 2160 114 266 331
678 435 824 44 61 48 53 25 -51 -24 -108 -38 -350 -26 -466 12 -113 46 -234
91 -323 27 -54 82 -110 167 -169 128 -88 418 -104 716 -39 108 23 144 43 266
151 53 45 143 123 200 173 58 49 132 115 165 145 33 30 126 111 205 180 80 69
208 181 285 250 77 69 187 163 244 210 57 47 168 140 247 206 78 67 178 149
223 183 44 33 83 66 87 72 8 13 153 109 165 109 17 0 573 -548 832 -820 144
-151 325 -340 402 -420 77 -80 184 -198 238 -262 60 -70 111 -122 130 -130 22
-9 76 -13 167 -12 114 0 152 4 243 28 188 48 311 114 435 235 95 92 154 180
212 316 60 141 68 164 101 309 24 107 27 135 19 167 -11 40 -165 279 -280 434
-36 50 -97 136 -133 192 -37 56 -98 140 -137 187 -38 46 -80 102 -93 123 -33
52 -259 303 -394 438 -255 256 -405 382 -596 499 -69 42 -131 84 -138 92 -11
14 11 15 212 9 123 -3 332 -10 464 -15z m-10615 -3913 c47 -72 117 -175 155
-227 39 -52 108 -149 153 -215 45 -66 107 -154 137 -195 60 -83 268 -387 328
-480 22 -33 41 -77 44 -98 5 -37 0 -46 -83 -153 -48 -63 -104 -136 -124 -163
-19 -26 -52 -71 -72 -99 -21 -28 -38 -56 -38 -62 0 -5 26 -27 58 -48 31 -20
80 -55 107 -77 28 -22 57 -40 65 -40 8 0 30 25 48 56 19 30 51 75 73 100 22
25 57 71 78 103 21 31 85 122 142 203 136 191 175 248 400 591 104 158 193
287 197 287 5 0 7 -26 5 -57 -1 -32 -5 -170 -7 -308 -6 -306 -26 -553 -72
-875 -60 -423 -97 -626 -156 -875 l-41 -169 54 -47 c29 -26 70 -58 92 -71 21
-13 91 -65 155 -117 64 -52 169 -133 232 -181 63 -48 145 -111 181 -141 104
-84 244 -193 265 -205 19 -11 18 -12 -2 -35 -12 -13 -51 -69 -87 -124 -36 -55
-88 -132 -114 -170 -173 -253 -267 -427 -393 -730 -32 -77 -70 -165 -83 -196
-36 -79 -144 -431 -167 -542 -62 -295 -92 -497 -97 -645 l-6 -152 -54 112
c-58 119 -150 329 -202 462 -44 109 -197 526 -209 567 -6 19 -35 115 -66 214
-115 364 -175 668 -176 877 0 101 -6 95 125 138 49 17 81 33 83 42 3 14 -92
254 -104 268 -3 2 -13 -1 -24 -7 -18 -12 -395 -163 -405 -163 -3 0 -74 -27
-158 -60 -260 -102 -453 -166 -732 -244 -484 -133 -595 -157 -750 -159 l-120
-2 0 26 c0 21 75 104 360 403 198 207 384 405 413 439 29 34 76 87 105 117 29
30 54 58 57 62 3 4 -102 9 -233 12 -374 9 -628 41 -937 117 -370 91 -570 179
-606 265 -32 76 -7 108 116 147 259 81 744 127 1348 127 116 0 212 4 212 9 0
5 -20 22 -44 38 -25 15 -132 112 -238 214 -295 284 -578 549 -644 604 -32 27
-117 106 -189 175 -71 69 -158 149 -192 179 -91 78 -117 121 -116 187 2 85 18
119 68 148 56 33 76 33 155 -5 80 -39 402 -179 610 -266 85 -35 218 -92 295
-125 540 -234 698 -298 738 -298 11 0 8 67 -12 268 -11 103 -29 302 -40 442
-12 140 -32 391 -46 557 -15 167 -27 315 -28 330 -2 24 4 30 53 50 30 12 60
22 65 22 6 0 48 -59 95 -132z m18167 -12624 c-2 -21 -4 -6 -4 32 0 39 2 55 4
38 2 -18 2 -50 0 -70z m20 -190 c-3 -10 -5 -4 -5 12 0 17 2 24 5 18 2 -7 2
-21 0 -30z m10 -75 c-2 -13 -4 -5 -4 17 -1 22 1 32 4 23 2 -10 2 -28 0 -40z
m10 -90 c-2 -13 -4 -3 -4 22 0 25 2 35 4 23 2 -13 2 -33 0 -45z m10 -75 c-3
-10 -5 -4 -5 12 0 17 2 24 5 18 2 -7 2 -21 0 -30z m313 -99 c0 -21 -4 -33 -10
-29 -5 3 -10 19 -10 36 0 16 5 29 10 29 6 0 10 -16 10 -36z m-240 -370 c0 -30
-20 -42 -21 -12 0 13 -2 34 -5 48 -4 24 -3 24 11 6 8 -11 15 -30 15 -42z
m3958 -67 c42 -228 77 -887 69 -1292 -9 -419 -50 -808 -117 -1110 -83 -372
-114 -462 -275 -795 -131 -272 -152 -358 -126 -536 11 -72 81 -256 157 -409
53 -106 55 -113 55 -191 0 -94 -16 -168 -66 -313 -70 -200 -153 -331 -304
-482 -92 -91 -120 -112 -207 -157 -55 -28 -141 -63 -190 -78 -82 -25 -103 -27
-259 -27 -152 0 -181 3 -269 26 -109 29 -148 51 -222 124 -60 58 -134 150
-134 166 0 7 -14 48 -31 92 -22 55 -33 102 -35 151 -5 103 -36 192 -84 247
-51 58 -90 81 -166 101 -113 29 -273 114 -274 145 0 8 18 37 39 65 22 28 59
89 83 136 76 145 133 228 219 317 l83 86 165 -9 c304 -15 368 -13 431 17 185
89 253 301 205 638 -9 58 -27 145 -40 193 -38 137 -142 345 -202 404 -37 37
-169 190 -194 224 -38 53 -46 83 -64 235 -25 222 -54 421 -76 535 -28 147 -94
404 -125 492 -35 99 -145 322 -188 382 -19 27 -33 53 -30 57 3 5 28 15 57 23
29 8 126 37 217 65 91 27 185 55 210 61 25 6 135 38 245 70 452 133 838 244
995 286 74 20 198 56 275 80 77 23 145 43 151 44 6 0 16 -28 22 -63z m-3662
-183 c20 -94 15 -105 -11 -24 -28 86 -29 93 -13 88 6 -2 17 -31 24 -64z m-299
-211 c-2 -21 -4 -4 -4 37 0 41 2 58 4 38 2 -21 2 -55 0 -75z m1138 -53 c-27
-12 -43 -12 -25 0 8 5 22 9 30 9 10 0 8 -3 -5 -9z m-1091 -239 c4 -36 -3 -15
-19 59 -13 63 -24 129 -24 145 0 39 36 -131 43 -204z m738 122 c-172 -57 -318
-103 -324 -101 -6 2 117 46 273 97 156 51 295 97 309 101 14 5 32 8 40 8 8 0
-126 -47 -298 -105z m687 -143 l26 -33 -36 23 c-20 13 -36 30 -36 37 0 21 17
11 46 -27z m-102 14 c-3 -3 -12 -4 -19 -1 -8 3 -5 6 6 6 11 1 17 -2 13 -5z
m-14730 -1831 c-3 -10 -5 -4 -5 12 0 17 2 24 5 18 2 -7 2 -21 0 -30z m-10 -45
c-3 -8 -6 -5 -6 6 -1 11 2 17 5 13 3 -3 4 -12 1 -19z m15644 -159 c11 -22 17
-44 14 -49 -3 -5 15 -47 40 -93 72 -133 85 -182 97 -360 5 -87 7 -169 4 -183
-11 -42 -136 -78 -136 -39 0 18 -12 19 -27 4 -5 -5 -30 -9 -54 -7 -39 3 -44 6
-47 28 -3 34 20 76 40 72 32 -5 40 91 36 394 -1 155 0 280 5 277 4 -2 16 -22
28 -44z m-627 -799 c-26 -27 -50 -50 -52 -50 -8 0 41 61 65 80 42 33 38 23
-13 -30z m-15127 -142 c-3 -8 -6 -5 -6 6 -1 11 2 17 5 13 3 -3 4 -12 1 -19z
m0 -50 c-3 -7 -5 -2 -5 12 0 14 2 19 5 13 2 -7 2 -19 0 -25z m13253 -568 c709
-21 957 -41 1255 -104 66 -14 131 -26 145 -26 21 0 29 -8 39 -35 17 -48 113
-150 184 -196 32 -21 112 -59 178 -85 140 -56 135 -50 151 -194 14 -132 65
-255 168 -410 74 -110 114 -218 124 -333 4 -38 15 -119 26 -180 66 -386 83
-653 83 -1297 -1 -494 -12 -793 -41 -1085 l-7 -70 -1505 4 c-828 2 -2470 7
-3650 10 l-2145 6 -3 25 c-10 103 -107 412 -183 586 -27 62 -49 118 -49 125 0
21 -94 296 -124 362 -53 119 -126 227 -174 258 -74 47 -158 32 -231 -41 -33
-33 -33 -34 -29 -114 l4 -81 107 -177 c59 -97 113 -194 121 -215 39 -101 52
-333 34 -613 l-13 -195 -635 -6 c-349 -3 -1260 -11 -2025 -17 -764 -7 -1748
-16 -2185 -22 -1993 -25 -2897 -32 -2930 -23 l-35 9 -32 135 c-40 168 -53 295
-53 513 0 500 71 1153 206 1896 90 499 168 891 189 950 11 33 14 34 56 32 24
-2 130 -16 234 -32 344 -53 490 -62 895 -57 313 3 382 7 485 25 279 49 428 95
640 197 152 72 449 194 548 225 306 94 566 140 832 147 171 4 205 2 340 -20
95 -16 207 -44 305 -76 168 -55 264 -107 460 -252 167 -123 390 -220 620 -271
91 -20 133 -23 310 -23 189 1 213 3 313 28 203 51 348 107 637 247 380 185
613 265 1030 353 31 6 145 11 260 12 165 0 220 -4 280 -18 180 -44 327 -125
505 -278 64 -55 143 -120 175 -144 66 -48 219 -128 323 -169 248 -98 798 -123
1097 -51 281 69 436 126 670 247 85 44 229 119 318 165 208 108 401 189 622
263 253 85 416 112 625 104 66 -2 271 -9 455 -14z m-4140 -120 c84 -90 59 -75
-35 22 -48 49 -60 64 -30 38 28 -24 57 -51 65 -60z m121 -117 c13 -16 12 -17
-3 -4 -17 13 -22 21 -14 21 2 0 10 -8 17 -17z m4264 -4085 c-4 -13 -8 -30 -10
-38 -9 -34 -36 -266 -50 -420 -8 -91 -21 -232 -30 -315 -21 -216 -42 -497 -55
-750 -6 -121 -15 -247 -21 -281 -5 -33 -9 -100 -9 -148 0 -73 -3 -88 -17 -93
-10 -3 -63 -25 -119 -49 -377 -162 -914 -164 -1529 -4 -88 23 -184 47 -212 53
l-53 10 0 111 c0 173 -26 360 -86 612 -75 321 -185 600 -400 1022 -85 166
-154 304 -154 305 0 2 619 5 1376 6 l1376 2 -7 -23z m-8585 -74 c0 -3 -14 -44
-30 -91 -37 -106 -119 -437 -165 -667 -76 -385 -166 -979 -191 -1259 -5 -65
-10 -79 -28 -89 -11 -6 -41 -28 -66 -48 -25 -20 -88 -65 -140 -100 -52 -35
-123 -82 -158 -106 -175 -118 -503 -257 -684 -290 -130 -25 -389 -25 -476 -1
-99 28 -166 61 -195 98 -40 51 -392 1119 -417 1266 -6 34 -19 82 -30 106 -11
24 -22 63 -25 87 -3 24 -14 73 -25 109 -11 36 -31 118 -44 181 -14 63 -38 171
-55 240 -27 113 -82 400 -94 491 l-5 37 61 6 c34 3 602 9 1262 12 1001 5 1404
11 1493 22 6 1 12 -1 12 -4z m6685 -2314 c227 -56 344 -77 544 -99 250 -28
248 -28 441 -19 283 13 443 41 638 111 40 15 77 27 81 27 4 0 4 -30 0 -67 -4
-38 -12 -207 -19 -378 -6 -170 -16 -391 -22 -490 -6 -99 -12 -223 -12 -275 -2
-90 -4 -99 -40 -168 -57 -106 -141 -189 -246 -241 -125 -61 -201 -74 -395 -68
-179 6 -299 31 -515 107 -178 63 -219 87 -261 151 -79 120 -206 455 -254 669
-70 309 -116 564 -130 719 -7 70 -6 74 11 67 11 -4 91 -25 179 -46z m-7183
-156 c-13 -9 -26 -13 -30 -9 -8 8 17 25 38 25 9 0 6 -6 -8 -16z m72 -61 c-12
-126 -26 -789 -23 -1132 l4 -404 -230 -63 c-260 -72 -494 -124 -605 -135 -41
-4 -89 -11 -106 -17 -18 -5 -79 -13 -137 -17 l-106 -7 -6 28 c-4 16 -28 99
-55 184 -27 85 -81 259 -120 385 -39 127 -91 291 -115 365 -68 208 -128 410
-123 415 2 2 26 -3 53 -12 40 -13 95 -16 270 -17 212 0 225 1 355 31 161 37
289 83 465 167 120 58 376 203 435 247 38 28 49 24 44 -18z m-1833 -955 c40
-9 56 -19 71 -43 20 -32 21 -37 158 -495 89 -301 164 -524 182 -547 9 -11 44
-16 190 -29 201 -17 730 74 1142 196 93 28 177 50 187 50 38 0 224 -248 304
-405 89 -175 94 -244 24 -320 l-39 -43 -368 -6 c-202 -4 -461 -11 -577 -17
-255 -11 -823 -54 -995 -74 -363 -43 -797 -148 -1200 -291 -335 -118 -494
-168 -757 -238 -248 -67 -341 -79 -564 -75 -162 4 -177 6 -223 29 -65 32 -88
66 -94 132 -5 64 8 101 43 124 14 9 124 57 243 106 420 173 498 207 662 280
287 129 792 370 865 412 93 54 211 172 265 266 51 86 105 240 114 320 27 252
39 329 64 403 43 129 118 229 197 263 38 17 42 17 106 2z m10939 -11 c34 -27
91 -107 119 -168 44 -94 60 -167 72 -329 13 -189 24 -238 61 -294 85 -129 214
-210 358 -226 47 -5 108 -16 135 -24 28 -8 70 -17 94 -21 24 -4 82 -20 129
-36 47 -16 94 -29 105 -29 10 0 58 -12 106 -26 471 -141 883 -276 952 -310 67
-33 101 -65 133 -124 24 -44 28 -60 24 -111 -4 -48 -10 -65 -34 -90 -63 -66
-226 -120 -418 -140 -160 -17 -480 -5 -691 25 -218 32 -239 37 -398 95 -72 27
-148 53 -167 59 -76 24 -406 84 -542 99 -313 34 -1462 26 -1848 -13 -80 -9
-218 -18 -307 -21 -160 -6 -162 -6 -206 20 -40 24 -109 101 -136 154 -17 33
-13 107 9 166 11 30 51 104 88 165 73 122 184 252 385 449 136 135 130 133
214 89 35 -18 403 -109 533 -131 53 -10 152 -15 270 -16 177 0 190 2 295 31
115 32 258 98 337 155 136 99 272 354 293 548 8 70 10 74 35 54z"/>
<path d="M18467 32929 c7 -7 15 -10 18 -7 3 3 -2 9 -12 12 -14 6 -15 5 -6 -5z"/>
<path d="M12197 30814 c-53 -7 -123 -20 -155 -29 -31 -8 -105 -26 -163 -39
-273 -63 -577 -190 -818 -342 -294 -186 -387 -259 -595 -469 -239 -242 -357
-408 -529 -745 -121 -237 -154 -319 -206 -515 -18 -66 -43 -156 -56 -200 -29
-96 -58 -306 -45 -319 6 -6 10 -7 10 -4 0 3 26 0 58 -8 31 -7 94 -13 139 -14
94 0 88 -7 98 115 27 323 260 887 499 1205 183 243 345 400 609 591 177 128
288 190 506 284 244 106 413 153 673 190 419 60 800 27 1199 -101 261 -84 541
-233 735 -390 155 -125 363 -333 430 -427 32 -47 89 -127 125 -178 117 -165
241 -422 313 -649 45 -141 102 -401 119 -540 l13 -105 35 1 c18 0 85 7 147 14
81 10 112 18 112 28 0 21 -38 267 -56 357 -33 171 -123 457 -212 670 -116 280
-423 694 -680 917 -241 210 -410 328 -605 423 -326 157 -583 235 -922 279
-151 20 -633 20 -778 0z"/>
<path d="M20065 30820 c-203 -16 -583 -101 -771 -173 -247 -95 -615 -303 -800
-453 -174 -141 -420 -381 -494 -483 -28 -39 -56 -71 -60 -71 -5 0 -36 -35 -68
-77 -32 -43 -75 -100 -96 -127 -79 -104 -315 -523 -367 -651 -17 -44 -46 -109
-64 -145 -40 -80 -69 -166 -62 -184 3 -7 43 -23 89 -36 46 -12 95 -28 110 -36
15 -8 38 -14 53 -14 19 0 25 5 25 23 0 37 131 321 234 507 97 175 247 406 332
510 93 114 352 385 434 454 276 233 551 395 870 514 215 81 361 114 650 147
157 19 456 12 526 -11 22 -8 74 -16 115 -20 128 -10 417 -103 623 -199 101
-47 245 -134 442 -266 162 -110 215 -151 355 -275 365 -324 651 -730 919
-1304 89 -190 124 -282 181 -472 l44 -148 35 1 c19 0 51 6 70 14 19 7 66 23
103 35 38 12 71 29 74 36 8 21 -125 404 -202 584 -116 269 -240 496 -430 786
-138 209 -172 250 -401 489 -342 356 -562 524 -956 730 -277 144 -597 251
-890 295 -150 24 -461 33 -623 20z"/>
<path d="M12870 29119 c-384 -34 -790 -152 -1153 -336 -125 -64 -363 -220
-487 -320 -139 -111 -396 -369 -477 -478 -41 -55 -97 -129 -124 -164 -118
-151 -329 -556 -393 -751 -71 -219 -101 -419 -100 -675 2 -282 38 -455 158
-755 101 -252 221 -426 461 -666 252 -253 586 -462 966 -603 477 -177 1140
-237 1709 -155 274 40 608 141 835 253 177 88 416 245 519 342 213 199 409
463 530 711 100 204 202 532 241 768 45 270 35 609 -26 928 -40 207 -89 342
-221 607 -124 247 -234 394 -458 608 -342 328 -704 518 -1202 633 -235 54
-534 74 -778 53z m689 -1528 c135 -49 254 -125 343 -218 95 -99 182 -294 198
-448 5 -44 14 -104 20 -134 21 -96 10 -155 -53 -286 -32 -65 -77 -147 -101
-184 -197 -301 -620 -532 -1006 -548 -111 -4 -136 -2 -221 20 -346 90 -533
250 -616 527 -12 37 -17 93 -17 175 -1 113 2 127 38 239 63 196 190 410 321
541 224 223 584 362 910 351 81 -3 116 -10 184 -35z"/>
<path d="M18980 28913 c-447 -67 -634 -124 -939 -286 -230 -121 -420 -258
-580 -416 -255 -254 -291 -298 -439 -546 -108 -181 -160 -291 -228 -483 -148
-417 -210 -838 -175 -1192 26 -264 148 -588 320 -850 89 -135 284 -322 456
-435 286 -189 398 -246 650 -329 247 -81 456 -129 729 -167 216 -30 633 -38
846 -15 205 22 423 67 595 123 947 308 1502 1005 1671 2098 32 213 0 469 -96
758 -75 224 -250 555 -388 732 -77 100 -429 451 -507 507 -146 104 -384 236
-543 299 -237 96 -539 175 -754 198 -89 10 -560 13 -618 4z m520 -1328 c129
-45 191 -85 296 -189 160 -161 247 -393 249 -662 l0 -121 -57 -114 c-68 -135
-186 -297 -290 -394 -88 -83 -259 -188 -373 -228 -44 -16 -134 -45 -200 -64
-113 -34 -128 -36 -265 -37 -163 0 -209 9 -375 76 -238 97 -373 242 -440 472
-24 83 -16 292 15 391 30 95 117 273 180 368 61 93 208 248 294 313 148 111
389 203 591 224 148 16 257 5 375 -35z"/>
<path d="M12520 19550 c-25 -10 -76 -31 -115 -46 -189 -73 -495 -254 -568
-337 -17 -19 -17 -21 7 -36 24 -16 40 -34 122 -144 20 -26 42 -46 48 -44 6 3
57 37 113 77 170 119 365 220 488 252 28 7 53 17 57 22 3 5 -2 32 -12 60 -10
28 -21 77 -24 108 -12 113 -28 126 -116 88z"/>
<path d="M5740 25626 c0 -2 7 -9 15 -16 13 -11 14 -10 9 4 -5 14 -24 23 -24
12z"/>
</g>
</svg>
